<svg xmlns="http://www.w3.org/2000/svg" viewBox="0 0 1440 620" preserveAspectRatio="xMidYMax slice">
  <!-- Ilustración libre de paisaje andino (Machu Picchu estilizado) -->
  <rect width="1440" height="620" fill="#EEF0F3"/>
  <circle cx="1150" cy="120" r="58" fill="#E4E7EB"/>
  <!-- Montañas de fondo -->
  <path d="M0 420 L180 210 L320 360 L470 170 L620 380 L760 240 L900 400 L1050 220 L1220 390 L1350 280 L1440 380 L1440 620 L0 620 Z" fill="#E4E7EB"/>
  <!-- Huayna Picchu -->
  <path d="M540 620 L700 130 L820 300 L900 620 Z" fill="#DCE0E5"/>
  <path d="M700 130 L760 220 L720 260 L680 210 Z" fill="#D2D7DD"/>
  <!-- Montaña principal -->
  <path d="M100 620 L330 240 L520 620 Z" fill="#D9DDE2"/>
  <path d="M950 620 L1180 260 L1400 620 Z" fill="#DCE0E5"/>
  <!-- Andenes (terrazas) -->
  <g fill="#D2D7DD">
    <rect x="180" y="500" width="300" height="14" rx="3"/>
    <rect x="200" y="528" width="320" height="14" rx="3"/>
    <rect x="220" y="556" width="340" height="14" rx="3"/>
    <rect x="240" y="584" width="360" height="14" rx="3"/>
    <rect x="880" y="510" width="320" height="14" rx="3"/>
    <rect x="900" y="538" width="340" height="14" rx="3"/>
    <rect x="920" y="566" width="360" height="14" rx="3"/>
  </g>
  <!-- Construcciones incas -->
  <g fill="#CBD1D8">
    <rect x="620" y="470" width="52" height="40" rx="2"/>
    <path d="M616 470 L646 448 L676 470 Z"/>
    <rect x="690" y="480" width="44" height="30" rx="2"/>
    <path d="M686 480 L712 462 L738 480 Z"/>
  </g>
  <!-- Llama -->
  <g fill="#C4CBD3">
    <path d="M420 585 q2 -26 14 -28 q3 -14 8 -16 q4 -2 5 4 l2 10 q14 2 16 18 l3 12 q1 6 -5 6 l-3 0 -2 14 -6 0 -1 -13 -12 0 -1 13 -6 0 -2 -14 q-9 0 -10 -6 Z"/>
    <ellipse cx="447" cy="541" rx="3" ry="4"/>
  </g>
</svg>
